G04 #@! TF.GenerationSoftware,KiCad,Pcbnew,(5.1.7)-1*
G04 #@! TF.CreationDate,2020-12-18T14:13:03+01:00*
G04 #@! TF.ProjectId,CR-VERSION,43522d56-4552-4534-994f-4e2e6b696361,rev?*
G04 #@! TF.SameCoordinates,Original*
G04 #@! TF.FileFunction,Soldermask,Top*
G04 #@! TF.FilePolarity,Negative*
%FSLAX46Y46*%
G04 Gerber Fmt 4.6, Leading zero omitted, Abs format (unit mm)*
G04 Created by KiCad (PCBNEW (5.1.7)-1) date 2020-12-18 14:13:03*
%MOMM*%
%LPD*%
G01*
G04 APERTURE LIST*
%ADD10O,1.800000X1.800000*%
%ADD11R,1.800000X1.800000*%
%ADD12R,1.500000X2.800000*%
%ADD13R,0.700000X1.500000*%
%ADD14R,1.000000X1.500000*%
%ADD15C,1.416000*%
%ADD16C,1.200000*%
%ADD17C,2.600000*%
%ADD18R,2.600000X2.600000*%
%ADD19C,1.600000*%
%ADD20R,1.600000X1.600000*%
%ADD21O,1.600000X1.600000*%
%ADD22O,2.400000X1.600000*%
%ADD23R,2.400000X1.600000*%
%ADD24O,1.400000X1.400000*%
%ADD25C,1.400000*%
%ADD26C,3.200000*%
%ADD27O,2.400000X2.400000*%
%ADD28C,2.400000*%
%ADD29C,2.100000*%
%ADD30C,1.750000*%
%ADD31O,1.700000X1.700000*%
%ADD32R,1.700000X1.700000*%
%ADD33C,1.935000*%
%ADD34R,1.935000X1.935000*%
%ADD35C,3.000000*%
G04 APERTURE END LIST*
D10*
X155303000Y-114894000D03*
D11*
X152763000Y-114894000D03*
D12*
X164300000Y-73355000D03*
X162100000Y-51855000D03*
X189400000Y-51855000D03*
X189400000Y-73355000D03*
D13*
X188005000Y-75155000D03*
X186805000Y-75155000D03*
D14*
X166375000Y-75155000D03*
X185505000Y-75155000D03*
X183805000Y-75155000D03*
X181375000Y-75155000D03*
X178875000Y-75155000D03*
X176375000Y-75155000D03*
X173875000Y-75155000D03*
X171375000Y-75155000D03*
X168875000Y-75155000D03*
D12*
X192621000Y-73355000D03*
X190421000Y-51855000D03*
X217721000Y-51855000D03*
X217721000Y-73355000D03*
D13*
X216326000Y-75155000D03*
X215126000Y-75155000D03*
D14*
X194696000Y-75155000D03*
X213826000Y-75155000D03*
X212126000Y-75155000D03*
X209696000Y-75155000D03*
X207196000Y-75155000D03*
X204696000Y-75155000D03*
X202196000Y-75155000D03*
X199696000Y-75155000D03*
X197196000Y-75155000D03*
D15*
X152763000Y-56601000D03*
X155303000Y-56601000D03*
X157843000Y-56601000D03*
X222232000Y-56601000D03*
X224772000Y-56601000D03*
X227312000Y-56601000D03*
D16*
X212580000Y-89113000D03*
X204960000Y-89113000D03*
X204960000Y-81493000D03*
X212580000Y-81493000D03*
D17*
X155685000Y-138023500D03*
X150985000Y-141023500D03*
D18*
X150985000Y-135023500D03*
D19*
X149922000Y-69936000D03*
D20*
X154922000Y-69936000D03*
D19*
X181909500Y-103497000D03*
X181909500Y-113497000D03*
D21*
X181846000Y-117180000D03*
X181846000Y-119720000D03*
X181846000Y-122260000D03*
X181846000Y-124800000D03*
D20*
X181846000Y-127340000D03*
D21*
X181896800Y-100695400D03*
X181896800Y-98155400D03*
X181896800Y-95615400D03*
X181896800Y-93075400D03*
X181896800Y-90535400D03*
D20*
X181896800Y-87995400D03*
D21*
X207957200Y-97215600D03*
X210497200Y-97215600D03*
X213037200Y-97215600D03*
D20*
X215577200Y-97215600D03*
D22*
X147429000Y-123161700D03*
X155049000Y-118081700D03*
X147429000Y-120621700D03*
X155049000Y-120621700D03*
X147429000Y-118081700D03*
D23*
X155049000Y-123161700D03*
D24*
X229852000Y-125943000D03*
D25*
X232392000Y-125943000D03*
D22*
X232773000Y-118107100D03*
X225153000Y-123187100D03*
X232773000Y-120647100D03*
X225153000Y-120647100D03*
X232773000Y-123187100D03*
D23*
X225153000Y-118107100D03*
D24*
X221343000Y-63840000D03*
D25*
X223883000Y-63840000D03*
D24*
X224010000Y-61554000D03*
D25*
X221470000Y-61554000D03*
D24*
X156446000Y-63967000D03*
D25*
X158986000Y-63967000D03*
D24*
X159113000Y-61681000D03*
D25*
X156573000Y-61681000D03*
D19*
X154541000Y-86540000D03*
X154541000Y-76540000D03*
X225534000Y-86413000D03*
X225534000Y-76413000D03*
X204833000Y-118229000D03*
X204833000Y-128229000D03*
D26*
X150985000Y-61300000D03*
X228709000Y-61681000D03*
X190228000Y-137881000D03*
D19*
X230724500Y-70952000D03*
D20*
X225724500Y-70952000D03*
D27*
X150096000Y-83017000D03*
D28*
X150096000Y-77937000D03*
D27*
X230233000Y-83398000D03*
D28*
X230233000Y-78318000D03*
D27*
X148749800Y-130642000D03*
D28*
X153829800Y-130642000D03*
D29*
X221363000Y-54519000D03*
D30*
X222613000Y-52029000D03*
X227113000Y-52029000D03*
D29*
X228373000Y-54519000D03*
D24*
X155303000Y-97418800D03*
D25*
X155303000Y-99958800D03*
D31*
X215437500Y-109115500D03*
X212897500Y-109115500D03*
X215437500Y-106575500D03*
X212897500Y-106575500D03*
X215437500Y-104035500D03*
D32*
X212897500Y-104035500D03*
D19*
X152102600Y-89853400D03*
D20*
X152102600Y-94853400D03*
D19*
X154668000Y-112244800D03*
X154668000Y-102244800D03*
D33*
X150858000Y-99958800D03*
X150858000Y-102498800D03*
D34*
X150858000Y-105038800D03*
D29*
X193573500Y-143900000D03*
D30*
X192323500Y-146390000D03*
X187823500Y-146390000D03*
D29*
X186563500Y-143900000D03*
D35*
X211230000Y-146589000D03*
X206230000Y-131589000D03*
X213730000Y-136589000D03*
X211230000Y-134089000D03*
X206230000Y-136589000D03*
X201230000Y-134089000D03*
X198730000Y-136589000D03*
X201230000Y-146589000D03*
D21*
X199816500Y-79207000D03*
X184576500Y-127467000D03*
X199816500Y-81747000D03*
X184576500Y-124927000D03*
X199816500Y-84287000D03*
X184576500Y-122387000D03*
X199816500Y-86827000D03*
X184576500Y-119847000D03*
X199816500Y-89367000D03*
X184576500Y-117307000D03*
X199816500Y-91907000D03*
X184576500Y-114767000D03*
X199816500Y-94447000D03*
X184576500Y-112227000D03*
X199816500Y-96987000D03*
X184576500Y-109687000D03*
X199816500Y-99527000D03*
X184576500Y-107147000D03*
X199816500Y-102067000D03*
X184576500Y-104607000D03*
X199816500Y-104607000D03*
X184576500Y-102067000D03*
X199816500Y-107147000D03*
X184576500Y-99527000D03*
X199816500Y-109687000D03*
X184576500Y-96987000D03*
X199816500Y-112227000D03*
X184576500Y-94447000D03*
X199816500Y-114767000D03*
X184576500Y-91907000D03*
X199816500Y-117307000D03*
X184576500Y-89367000D03*
X199816500Y-119847000D03*
X184576500Y-86827000D03*
X199816500Y-122387000D03*
X184576500Y-84287000D03*
X199816500Y-124927000D03*
X184576500Y-81747000D03*
X199816500Y-127467000D03*
D20*
X184576500Y-79207000D03*
D21*
X179179000Y-79207000D03*
X163939000Y-127467000D03*
X179179000Y-81747000D03*
X163939000Y-124927000D03*
X179179000Y-84287000D03*
X163939000Y-122387000D03*
X179179000Y-86827000D03*
X163939000Y-119847000D03*
X179179000Y-89367000D03*
X163939000Y-117307000D03*
X179179000Y-91907000D03*
X163939000Y-114767000D03*
X179179000Y-94447000D03*
X163939000Y-112227000D03*
X179179000Y-96987000D03*
X163939000Y-109687000D03*
X179179000Y-99527000D03*
X163939000Y-107147000D03*
X179179000Y-102067000D03*
X163939000Y-104607000D03*
X179179000Y-104607000D03*
X163939000Y-102067000D03*
X179179000Y-107147000D03*
X163939000Y-99527000D03*
X179179000Y-109687000D03*
X163939000Y-96987000D03*
X179179000Y-112227000D03*
X163939000Y-94447000D03*
X179179000Y-114767000D03*
X163939000Y-91907000D03*
X179179000Y-117307000D03*
X163939000Y-89367000D03*
X179179000Y-119847000D03*
X163939000Y-86827000D03*
X179179000Y-122387000D03*
X163939000Y-84287000D03*
X179179000Y-124927000D03*
X163939000Y-81747000D03*
X179179000Y-127467000D03*
D20*
X163939000Y-79207000D03*
D22*
X208135000Y-127721000D03*
X215755000Y-112481000D03*
X208135000Y-125181000D03*
X215755000Y-115021000D03*
X208135000Y-122641000D03*
X215755000Y-117561000D03*
X208135000Y-120101000D03*
X215755000Y-120101000D03*
X208135000Y-117561000D03*
X215755000Y-122641000D03*
X208135000Y-115021000D03*
X215755000Y-125181000D03*
X208135000Y-112481000D03*
D23*
X215755000Y-127721000D03*
D29*
X151830500Y-54519000D03*
D30*
X153080500Y-52029000D03*
X157580500Y-52029000D03*
D29*
X158840500Y-54519000D03*
D21*
X202928000Y-93875500D03*
X205468000Y-93875500D03*
X208008000Y-93875500D03*
X210548000Y-93875500D03*
X213088000Y-93875500D03*
D20*
X215628000Y-93875500D03*
D21*
X215564500Y-100543000D03*
X213024500Y-100543000D03*
X210484500Y-100543000D03*
D20*
X207944500Y-100543000D03*
D31*
X192514000Y-131340500D03*
X189974000Y-131340500D03*
D32*
X187434000Y-131340500D03*
D35*
X178972000Y-146589000D03*
X173972000Y-131589000D03*
X181472000Y-136589000D03*
X178972000Y-134089000D03*
X173972000Y-136589000D03*
X168972000Y-134089000D03*
X166472000Y-136589000D03*
X168972000Y-146589000D03*
D31*
X209214500Y-109115500D03*
X206674500Y-109115500D03*
X209214500Y-106575500D03*
X206674500Y-106575500D03*
X209214500Y-104035500D03*
D32*
X206674500Y-104035500D03*
D10*
X225407000Y-114767000D03*
D11*
X225407000Y-112227000D03*
D31*
X202902600Y-114309800D03*
X202902600Y-111769800D03*
X202902600Y-109229800D03*
X202902600Y-106689800D03*
X202902600Y-104149800D03*
X202902600Y-101609800D03*
D32*
X202902600Y-99069800D03*
D31*
X221840000Y-146740000D03*
X219300000Y-146740000D03*
X221840000Y-144200000D03*
X219300000Y-144200000D03*
X221840000Y-141660000D03*
X219300000Y-141660000D03*
X221840000Y-139120000D03*
X219300000Y-139120000D03*
X221840000Y-136580000D03*
X219300000Y-136580000D03*
X221840000Y-134040000D03*
X219300000Y-134040000D03*
X221840000Y-131500000D03*
X219300000Y-131500000D03*
X221840000Y-128960000D03*
X219300000Y-128960000D03*
X221840000Y-126420000D03*
X219300000Y-126420000D03*
X221840000Y-123880000D03*
X219300000Y-123880000D03*
X221840000Y-121340000D03*
X219300000Y-121340000D03*
X221840000Y-118800000D03*
X219300000Y-118800000D03*
X221840000Y-116260000D03*
X219300000Y-116260000D03*
X221840000Y-113720000D03*
X219300000Y-113720000D03*
X221840000Y-111180000D03*
X219300000Y-111180000D03*
X221840000Y-108640000D03*
X219300000Y-108640000D03*
X221840000Y-106100000D03*
X219300000Y-106100000D03*
X221840000Y-103560000D03*
X219300000Y-103560000D03*
X221840000Y-101020000D03*
X219300000Y-101020000D03*
X221840000Y-98480000D03*
X219300000Y-98480000D03*
X221840000Y-95940000D03*
X219300000Y-95940000D03*
X221840000Y-93400000D03*
X219300000Y-93400000D03*
X221840000Y-90860000D03*
X219300000Y-90860000D03*
X221840000Y-88320000D03*
X219300000Y-88320000D03*
X221840000Y-85780000D03*
X219300000Y-85780000D03*
X221840000Y-83240000D03*
X219300000Y-83240000D03*
X221840000Y-80700000D03*
X219300000Y-80700000D03*
X221840000Y-78160000D03*
X219300000Y-78160000D03*
X221840000Y-75620000D03*
X219300000Y-75620000D03*
X221840000Y-73080000D03*
X219300000Y-73080000D03*
X221840000Y-70540000D03*
X219300000Y-70540000D03*
X221840000Y-68000000D03*
D32*
X219300000Y-68000000D03*
X158360000Y-68000000D03*
D31*
X160900000Y-68000000D03*
X158360000Y-70540000D03*
X160900000Y-70540000D03*
X158360000Y-73080000D03*
X160900000Y-73080000D03*
X158360000Y-75620000D03*
X160900000Y-75620000D03*
X158360000Y-78160000D03*
X160900000Y-78160000D03*
X158360000Y-80700000D03*
X160900000Y-80700000D03*
X158360000Y-83240000D03*
X160900000Y-83240000D03*
X158360000Y-85780000D03*
X160900000Y-85780000D03*
X158360000Y-88320000D03*
X160900000Y-88320000D03*
X158360000Y-90860000D03*
X160900000Y-90860000D03*
X158360000Y-93400000D03*
X160900000Y-93400000D03*
X158360000Y-95940000D03*
X160900000Y-95940000D03*
X158360000Y-98480000D03*
X160900000Y-98480000D03*
X158360000Y-101020000D03*
X160900000Y-101020000D03*
X158360000Y-103560000D03*
X160900000Y-103560000D03*
X158360000Y-106100000D03*
X160900000Y-106100000D03*
X158360000Y-108640000D03*
X160900000Y-108640000D03*
X158360000Y-111180000D03*
X160900000Y-111180000D03*
X158360000Y-113720000D03*
X160900000Y-113720000D03*
X158360000Y-116260000D03*
X160900000Y-116260000D03*
X158360000Y-118800000D03*
X160900000Y-118800000D03*
X158360000Y-121340000D03*
X160900000Y-121340000D03*
X158360000Y-123880000D03*
X160900000Y-123880000D03*
X158360000Y-126420000D03*
X160900000Y-126420000D03*
X158360000Y-128960000D03*
X160900000Y-128960000D03*
X158360000Y-131500000D03*
X160900000Y-131500000D03*
X158360000Y-134040000D03*
X160900000Y-134040000D03*
X158360000Y-136580000D03*
X160900000Y-136580000D03*
X158360000Y-139120000D03*
X160900000Y-139120000D03*
X158360000Y-141660000D03*
X160900000Y-141660000D03*
X158360000Y-144200000D03*
X160900000Y-144200000D03*
X158360000Y-146740000D03*
X160900000Y-146740000D03*
M02*
