M48
; DRILL file {KiCad (5.1.7)-1} date 12/18/20 14:13:15
; FORMAT={-:-/ absolute / inch / decimal}
; #@! TF.CreationDate,2020-12-18T14:13:15+01:00
; #@! TF.GenerationSoftware,Kicad,Pcbnew,(5.1.7)-1
; #@! TF.FileFunction,Plated,1,4,PTH
FMAT,2
INCH
T1C0.0157
T2C0.0276
T3C0.0315
T4C0.0354
T5C0.0358
T6C0.0390
T7C0.0394
T8C0.0472
T9C0.0508
T10C0.0512
T11C0.0591
T12C0.0630
%
G90
G05
T1
X6.5443Y-4.4654
X6.7883Y-4.6274
X6.7913Y-3.6734
X6.8263Y-3.6274
X6.8293Y-4.6624
X6.8393Y-2.9044
X6.8763Y-3.3124
X6.9153Y-3.4224
X6.9173Y-3.2724
X6.9443Y-2.8884
X7.2843Y-2.8964
X7.3403Y-3.6898
X7.4003Y-2.0444
X7.4033Y-5.0961
X7.4583Y-3.7764
X7.5243Y-3.7204
X7.528Y-4.8727
X7.5513Y-2.0444
X7.5553Y-4.0414
X7.5713Y-4.6914
X7.5953Y-3.1254
X7.6498Y-3.9554
X7.6531Y-3.1359
X7.7513Y-4.1674
X7.7533Y-3.1234
X7.7573Y-4.2634
X7.7593Y-4.3674
X7.7643Y-3.8254
X7.9293Y-2.9034
X8.0543Y-2.8634
X8.0653Y-4.3594
X8.2203Y-3.2914
X8.2973Y-3.3634
X8.3403Y-4.6184
X8.3693Y-4.9344
X8.3943Y-4.7974
X8.3953Y-4.6624
X8.4043Y-2.8854
X8.4053Y-5.0614
X8.4073Y-5.0164
X8.4237Y-4.0312
X8.5443Y-4.3534
T2
X9.0493Y-4.9584
X9.1493Y-4.9584
X8.7143Y-2.5134
X8.8143Y-2.5134
X8.7193Y-2.4234
X8.8193Y-2.4234
X6.1143Y-3.8354
X6.1143Y-3.9354
X8.0693Y-3.2084
X8.0693Y-3.5084
X8.3693Y-3.2084
X8.3693Y-3.5084
X6.1643Y-2.4284
X6.2643Y-2.4284
X6.1593Y-2.5184
X6.2593Y-2.5184
T3
X8.1868Y-3.9584
X8.2868Y-3.9584
X8.3868Y-3.9584
X8.4868Y-3.9584
X8.1943Y-4.4284
X8.1943Y-4.5284
X8.1943Y-4.6284
X8.1943Y-4.7284
X8.1943Y-4.8284
X8.1943Y-4.9284
X8.1943Y-5.0284
X8.4943Y-4.4284
X8.4943Y-4.5284
X8.4943Y-4.6284
X8.4943Y-4.7284
X8.4943Y-4.8284
X8.4943Y-4.9284
X8.4943Y-5.0284
X6.0843Y-3.0134
X6.0843Y-3.4071
X7.9893Y-3.6959
X8.0893Y-3.6959
X8.1893Y-3.6959
X8.2893Y-3.6959
X8.3893Y-3.6959
X8.4893Y-3.6959
X7.1613Y-3.4644
X7.1613Y-3.5644
X7.1613Y-3.6644
X7.1613Y-3.7644
X7.1613Y-3.8644
X7.1613Y-3.9644
X6.0893Y-4.0254
X6.0893Y-4.4191
X6.4543Y-3.1184
X6.4543Y-3.2184
X6.4543Y-3.3184
X6.4543Y-3.4184
X6.4543Y-3.5184
X6.4543Y-3.6184
X6.4543Y-3.7184
X6.4543Y-3.8184
X6.4543Y-3.9184
X6.4543Y-4.0184
X6.4543Y-4.1184
X6.4543Y-4.2184
X6.4543Y-4.3184
X6.4543Y-4.4184
X6.4543Y-4.5184
X6.4543Y-4.6184
X6.4543Y-4.7184
X6.4543Y-4.8184
X6.4543Y-4.9184
X6.4543Y-5.0184
X7.0543Y-3.1184
X7.0543Y-3.2184
X7.0543Y-3.3184
X7.0543Y-3.4184
X7.0543Y-3.5184
X7.0543Y-3.6184
X7.0543Y-3.7184
X7.0543Y-3.8184
X7.0543Y-3.9184
X7.0543Y-4.0184
X7.0543Y-4.1184
X7.0543Y-4.2184
X7.0543Y-4.3184
X7.0543Y-4.4184
X7.0543Y-4.5184
X7.0543Y-4.6184
X7.0543Y-4.7184
X7.0543Y-4.8184
X7.0543Y-4.9184
X7.0543Y-5.0184
X5.8043Y-4.6489
X5.8043Y-4.7489
X5.8043Y-4.8489
X6.1043Y-4.6489
X6.1043Y-4.7489
X6.1043Y-4.8489
X5.9883Y-3.5375
X5.9883Y-3.7344
X8.0643Y-4.6547
X8.0643Y-5.0484
X7.2668Y-3.1184
X7.2668Y-3.2184
X7.2668Y-3.3184
X7.2668Y-3.4184
X7.2668Y-3.5184
X7.2668Y-3.6184
X7.2668Y-3.7184
X7.2668Y-3.8184
X7.2668Y-3.9184
X7.2668Y-4.0184
X7.2668Y-4.1184
X7.2668Y-4.2184
X7.2668Y-4.3184
X7.2668Y-4.4184
X7.2668Y-4.5184
X7.2668Y-4.6184
X7.2668Y-4.7184
X7.2668Y-4.8184
X7.2668Y-4.9184
X7.2668Y-5.0184
X7.8668Y-3.1184
X7.8668Y-3.2184
X7.8668Y-3.3184
X7.8668Y-3.4184
X7.8668Y-3.5184
X7.8668Y-3.6184
X7.8668Y-3.7184
X7.8668Y-3.8184
X7.8668Y-3.9184
X7.8668Y-4.0184
X7.8668Y-4.1184
X7.8668Y-4.2184
X7.8668Y-4.3184
X7.8668Y-4.4184
X7.8668Y-4.5184
X7.8668Y-4.6184
X7.8668Y-4.7184
X7.8668Y-4.8184
X7.8668Y-4.9184
X7.8668Y-5.0184
X7.1618Y-4.0747
X7.1618Y-4.4684
X8.8793Y-3.0084
X8.8793Y-3.4021
X8.8643Y-4.6499
X8.8643Y-4.7499
X8.8643Y-4.8499
X9.1643Y-4.6499
X9.1643Y-4.7499
X9.1643Y-4.8499
X8.8868Y-2.7934
X9.0836Y-2.7934
X8.1873Y-3.8274
X8.2873Y-3.8274
X8.3873Y-3.8274
X8.4873Y-3.8274
X7.1593Y-4.6134
X7.1593Y-4.7134
X7.1593Y-4.8134
X7.1593Y-4.9134
X7.1593Y-5.0134
X5.9024Y-2.7534
X6.0993Y-2.7534
T4
X6.0143Y-4.5234
X6.1143Y-4.5234
X8.8743Y-4.4184
X8.8743Y-4.5184
T5
X6.0143Y-2.2284
X6.1143Y-2.2284
X6.2143Y-2.2284
X8.7493Y-2.2284
X8.8493Y-2.2284
X8.9493Y-2.2284
T6
X6.0268Y-2.0484
X6.204Y-2.0484
X7.3946Y-5.7634
X7.5718Y-5.7634
X8.7643Y-2.0484
X8.9415Y-2.0484
T7
X8.3818Y-4.0959
X8.3818Y-4.1959
X8.3818Y-4.2959
X8.4818Y-4.0959
X8.4818Y-4.1959
X8.4818Y-4.2959
X8.6339Y-2.6772
X8.6339Y-2.7772
X8.6339Y-2.8772
X8.6339Y-2.9772
X8.6339Y-3.0772
X8.6339Y-3.1772
X8.6339Y-3.2772
X8.6339Y-3.3772
X8.6339Y-3.4772
X8.6339Y-3.5772
X8.6339Y-3.6772
X8.6339Y-3.7772
X8.6339Y-3.8772
X8.6339Y-3.9772
X8.6339Y-4.0772
X8.6339Y-4.1772
X8.6339Y-4.2772
X8.6339Y-4.3772
X8.6339Y-4.4772
X8.6339Y-4.5772
X8.6339Y-4.6772
X8.6339Y-4.7772
X8.6339Y-4.8772
X8.6339Y-4.9772
X8.6339Y-5.0772
X8.6339Y-5.1772
X8.6339Y-5.2772
X8.6339Y-5.3772
X8.6339Y-5.4772
X8.6339Y-5.5772
X8.6339Y-5.6772
X8.6339Y-5.7772
X8.7339Y-2.6772
X8.7339Y-2.7772
X8.7339Y-2.8772
X8.7339Y-2.9772
X8.7339Y-3.0772
X8.7339Y-3.1772
X8.7339Y-3.2772
X8.7339Y-3.3772
X8.7339Y-3.4772
X8.7339Y-3.5772
X8.7339Y-3.6772
X8.7339Y-3.7772
X8.7339Y-3.8772
X8.7339Y-3.9772
X8.7339Y-4.0772
X8.7339Y-4.1772
X8.7339Y-4.2772
X8.7339Y-4.3772
X8.7339Y-4.4772
X8.7339Y-4.5772
X8.7339Y-4.6772
X8.7339Y-4.7772
X8.7339Y-4.8772
X8.7339Y-4.9772
X8.7339Y-5.0772
X8.7339Y-5.1772
X8.7339Y-5.2772
X8.7339Y-5.3772
X8.7339Y-5.4772
X8.7339Y-5.5772
X8.7339Y-5.6772
X8.7339Y-5.7772
X7.9883Y-3.9004
X7.9883Y-4.0004
X7.9883Y-4.1004
X7.9883Y-4.2004
X7.9883Y-4.3004
X7.9883Y-4.4004
X7.9883Y-4.5004
X8.1368Y-4.0959
X8.1368Y-4.1959
X8.1368Y-4.2959
X8.2368Y-4.0959
X8.2368Y-4.1959
X8.2368Y-4.2959
X6.2346Y-2.6772
X6.2346Y-2.7772
X6.2346Y-2.8772
X6.2346Y-2.9772
X6.2346Y-3.0772
X6.2346Y-3.1772
X6.2346Y-3.2772
X6.2346Y-3.3772
X6.2346Y-3.4772
X6.2346Y-3.5772
X6.2346Y-3.6772
X6.2346Y-3.7772
X6.2346Y-3.8772
X6.2346Y-3.9772
X6.2346Y-4.0772
X6.2346Y-4.1772
X6.2346Y-4.2772
X6.2346Y-4.3772
X6.2346Y-4.4772
X6.2346Y-4.5772
X6.2346Y-4.6772
X6.2346Y-4.7772
X6.2346Y-4.8772
X6.2346Y-4.9772
X6.2346Y-5.0772
X6.2346Y-5.1772
X6.2346Y-5.2772
X6.2346Y-5.3772
X6.2346Y-5.4772
X6.2346Y-5.5772
X6.2346Y-5.6772
X6.2346Y-5.7772
X6.3346Y-2.6772
X6.3346Y-2.7772
X6.3346Y-2.8772
X6.3346Y-2.9772
X6.3346Y-3.0772
X6.3346Y-3.1772
X6.3346Y-3.2772
X6.3346Y-3.3772
X6.3346Y-3.4772
X6.3346Y-3.5772
X6.3346Y-3.6772
X6.3346Y-3.7772
X6.3346Y-3.8772
X6.3346Y-3.9772
X6.3346Y-4.0772
X6.3346Y-4.1772
X6.3346Y-4.2772
X6.3346Y-4.3772
X6.3346Y-4.4772
X6.3346Y-4.5772
X6.3346Y-4.6772
X6.3346Y-4.7772
X6.3346Y-4.8772
X6.3346Y-4.9772
X6.3346Y-5.0772
X6.3346Y-5.1772
X6.3346Y-5.2772
X6.3346Y-5.3772
X6.3346Y-5.4772
X6.3346Y-5.5772
X6.3346Y-5.6772
X6.3346Y-5.7772
X7.3793Y-5.1709
X7.4793Y-5.1709
X7.5793Y-5.1709
T8
X9.0643Y-3.0834
X9.0643Y-3.2834
X5.8563Y-5.1434
X6.0563Y-5.1434
X5.9093Y-3.0684
X5.9093Y-3.2684
T9
X5.9393Y-3.9354
X5.9393Y-4.0354
X5.9393Y-4.1354
T10
X5.9776Y-2.1464
X6.2536Y-2.1464
X7.345Y-5.6654
X7.621Y-5.6654
X8.7151Y-2.1464
X8.9911Y-2.1464
T11
X6.554Y-5.3775
X6.6524Y-5.2791
X6.6524Y-5.7712
X6.8493Y-5.1807
X6.8493Y-5.3775
X7.0461Y-5.2791
X7.0461Y-5.7712
X7.1446Y-5.3775
X7.824Y-5.3775
X7.9224Y-5.2791
X7.9224Y-5.7712
X8.1193Y-5.1807
X8.1193Y-5.3775
X8.3161Y-5.2791
X8.3161Y-5.7712
X8.4146Y-5.3775
T12
X5.9443Y-5.3159
X5.9443Y-5.5521
X6.1293Y-5.434
T0
M30
