G04 #@! TF.GenerationSoftware,KiCad,Pcbnew,(5.1.7)-1*
G04 #@! TF.CreationDate,2020-12-18T14:13:03+01:00*
G04 #@! TF.ProjectId,CR-VERSION,43522d56-4552-4534-994f-4e2e6b696361,rev?*
G04 #@! TF.SameCoordinates,Original*
G04 #@! TF.FileFunction,Legend,Bot*
G04 #@! TF.FilePolarity,Positive*
%FSLAX46Y46*%
G04 Gerber Fmt 4.6, Leading zero omitted, Abs format (unit mm)*
G04 Created by KiCad (PCBNEW (5.1.7)-1) date 2020-12-18 14:13:03*
%MOMM*%
%LPD*%
G01*
G04 APERTURE LIST*
%ADD10C,0.150000*%
%ADD11C,0.200000*%
%ADD12C,0.250000*%
%ADD13C,0.120000*%
G04 APERTURE END LIST*
D10*
X156737714Y-119787571D02*
X156702000Y-119716142D01*
X156666285Y-119680428D01*
X156594857Y-119644714D01*
X156559142Y-119644714D01*
X156487714Y-119680428D01*
X156452000Y-119716142D01*
X156416285Y-119787571D01*
X156416285Y-119930428D01*
X156452000Y-120001857D01*
X156487714Y-120037571D01*
X156559142Y-120073285D01*
X156594857Y-120073285D01*
X156666285Y-120037571D01*
X156702000Y-120001857D01*
X156737714Y-119930428D01*
X156737714Y-119787571D01*
X156773428Y-119716142D01*
X156809142Y-119680428D01*
X156880571Y-119644714D01*
X157023428Y-119644714D01*
X157094857Y-119680428D01*
X157130571Y-119716142D01*
X157166285Y-119787571D01*
X157166285Y-119930428D01*
X157130571Y-120001857D01*
X157094857Y-120037571D01*
X157023428Y-120073285D01*
X156880571Y-120073285D01*
X156809142Y-120037571D01*
X156773428Y-120001857D01*
X156737714Y-119930428D01*
X156380571Y-120930428D02*
X157344857Y-120287571D01*
X157166285Y-121216142D02*
X157166285Y-121359000D01*
X157130571Y-121430428D01*
X157094857Y-121466142D01*
X156987714Y-121537571D01*
X156844857Y-121573285D01*
X156559142Y-121573285D01*
X156487714Y-121537571D01*
X156452000Y-121501857D01*
X156416285Y-121430428D01*
X156416285Y-121287571D01*
X156452000Y-121216142D01*
X156487714Y-121180428D01*
X156559142Y-121144714D01*
X156737714Y-121144714D01*
X156809142Y-121180428D01*
X156844857Y-121216142D01*
X156880571Y-121287571D01*
X156880571Y-121430428D01*
X156844857Y-121501857D01*
X156809142Y-121537571D01*
X156737714Y-121573285D01*
X157166285Y-122280000D02*
X157166285Y-121851428D01*
X157166285Y-122065714D02*
X156416285Y-122065714D01*
X156523428Y-121994285D01*
X156594857Y-121922857D01*
X156630571Y-121851428D01*
X156416285Y-122744285D02*
X156416285Y-122815714D01*
X156452000Y-122887142D01*
X156487714Y-122922857D01*
X156559142Y-122958571D01*
X156702000Y-122994285D01*
X156880571Y-122994285D01*
X157023428Y-122958571D01*
X157094857Y-122922857D01*
X157130571Y-122887142D01*
X157166285Y-122815714D01*
X157166285Y-122744285D01*
X157130571Y-122672857D01*
X157094857Y-122637142D01*
X157023428Y-122601428D01*
X156880571Y-122565714D01*
X156702000Y-122565714D01*
X156559142Y-122601428D01*
X156487714Y-122637142D01*
X156452000Y-122672857D01*
X156416285Y-122744285D01*
X156380571Y-123851428D02*
X157344857Y-123208571D01*
X157166285Y-124494285D02*
X157166285Y-124065714D01*
X157166285Y-124280000D02*
X156416285Y-124280000D01*
X156523428Y-124208571D01*
X156594857Y-124137142D01*
X156630571Y-124065714D01*
X157166285Y-125208571D02*
X157166285Y-124780000D01*
X157166285Y-124994285D02*
X156416285Y-124994285D01*
X156523428Y-124922857D01*
X156594857Y-124851428D01*
X156630571Y-124780000D01*
X223412714Y-119660571D02*
X223377000Y-119589142D01*
X223341285Y-119553428D01*
X223269857Y-119517714D01*
X223234142Y-119517714D01*
X223162714Y-119553428D01*
X223127000Y-119589142D01*
X223091285Y-119660571D01*
X223091285Y-119803428D01*
X223127000Y-119874857D01*
X223162714Y-119910571D01*
X223234142Y-119946285D01*
X223269857Y-119946285D01*
X223341285Y-119910571D01*
X223377000Y-119874857D01*
X223412714Y-119803428D01*
X223412714Y-119660571D01*
X223448428Y-119589142D01*
X223484142Y-119553428D01*
X223555571Y-119517714D01*
X223698428Y-119517714D01*
X223769857Y-119553428D01*
X223805571Y-119589142D01*
X223841285Y-119660571D01*
X223841285Y-119803428D01*
X223805571Y-119874857D01*
X223769857Y-119910571D01*
X223698428Y-119946285D01*
X223555571Y-119946285D01*
X223484142Y-119910571D01*
X223448428Y-119874857D01*
X223412714Y-119803428D01*
X223055571Y-120803428D02*
X224019857Y-120160571D01*
X223841285Y-121089142D02*
X223841285Y-121232000D01*
X223805571Y-121303428D01*
X223769857Y-121339142D01*
X223662714Y-121410571D01*
X223519857Y-121446285D01*
X223234142Y-121446285D01*
X223162714Y-121410571D01*
X223127000Y-121374857D01*
X223091285Y-121303428D01*
X223091285Y-121160571D01*
X223127000Y-121089142D01*
X223162714Y-121053428D01*
X223234142Y-121017714D01*
X223412714Y-121017714D01*
X223484142Y-121053428D01*
X223519857Y-121089142D01*
X223555571Y-121160571D01*
X223555571Y-121303428D01*
X223519857Y-121374857D01*
X223484142Y-121410571D01*
X223412714Y-121446285D01*
X223841285Y-122407000D02*
X223841285Y-121978428D01*
X223841285Y-122192714D02*
X223091285Y-122192714D01*
X223198428Y-122121285D01*
X223269857Y-122049857D01*
X223305571Y-121978428D01*
X223091285Y-122871285D02*
X223091285Y-122942714D01*
X223127000Y-123014142D01*
X223162714Y-123049857D01*
X223234142Y-123085571D01*
X223377000Y-123121285D01*
X223555571Y-123121285D01*
X223698428Y-123085571D01*
X223769857Y-123049857D01*
X223805571Y-123014142D01*
X223841285Y-122942714D01*
X223841285Y-122871285D01*
X223805571Y-122799857D01*
X223769857Y-122764142D01*
X223698428Y-122728428D01*
X223555571Y-122692714D01*
X223377000Y-122692714D01*
X223234142Y-122728428D01*
X223162714Y-122764142D01*
X223127000Y-122799857D01*
X223091285Y-122871285D01*
X223055571Y-123978428D02*
X224019857Y-123335571D01*
X223841285Y-124621285D02*
X223841285Y-124192714D01*
X223841285Y-124407000D02*
X223091285Y-124407000D01*
X223198428Y-124335571D01*
X223269857Y-124264142D01*
X223305571Y-124192714D01*
X223841285Y-125335571D02*
X223841285Y-124907000D01*
X223841285Y-125121285D02*
X223091285Y-125121285D01*
X223198428Y-125049857D01*
X223269857Y-124978428D01*
X223305571Y-124907000D01*
D11*
X191916476Y-148996190D02*
X192333142Y-148258095D01*
X192630761Y-148996190D02*
X192630761Y-147446190D01*
X192154571Y-147446190D01*
X192035523Y-147520000D01*
X191976000Y-147593809D01*
X191916476Y-147741428D01*
X191916476Y-147962857D01*
X191976000Y-148110476D01*
X192035523Y-148184285D01*
X192154571Y-148258095D01*
X192630761Y-148258095D01*
X191380761Y-148184285D02*
X190964095Y-148184285D01*
X190785523Y-148996190D02*
X191380761Y-148996190D01*
X191380761Y-147446190D01*
X190785523Y-147446190D01*
X190309333Y-148922380D02*
X190130761Y-148996190D01*
X189833142Y-148996190D01*
X189714095Y-148922380D01*
X189654571Y-148848571D01*
X189595047Y-148700952D01*
X189595047Y-148553333D01*
X189654571Y-148405714D01*
X189714095Y-148331904D01*
X189833142Y-148258095D01*
X190071238Y-148184285D01*
X190190285Y-148110476D01*
X190249809Y-148036666D01*
X190309333Y-147889047D01*
X190309333Y-147741428D01*
X190249809Y-147593809D01*
X190190285Y-147520000D01*
X190071238Y-147446190D01*
X189773619Y-147446190D01*
X189595047Y-147520000D01*
X189059333Y-148184285D02*
X188642666Y-148184285D01*
X188464095Y-148996190D02*
X189059333Y-148996190D01*
X189059333Y-147446190D01*
X188464095Y-147446190D01*
X188106952Y-147446190D02*
X187392666Y-147446190D01*
X187749809Y-148996190D02*
X187749809Y-147446190D01*
D10*
X227058000Y-123403000D02*
X226550000Y-123403000D01*
X227058000Y-120355000D02*
X227058000Y-120863000D01*
X231630000Y-120355000D02*
X231122000Y-120355000D01*
X231122000Y-123403000D02*
X231122000Y-120355000D01*
X231630000Y-123403000D02*
X231122000Y-123403000D01*
X227058000Y-120863000D02*
X227058000Y-123403000D01*
X230607857Y-118662285D02*
X230607857Y-117912285D01*
X230607857Y-118626571D02*
X230679285Y-118662285D01*
X230822142Y-118662285D01*
X230893571Y-118626571D01*
X230929285Y-118590857D01*
X230965000Y-118519428D01*
X230965000Y-118305142D01*
X230929285Y-118233714D01*
X230893571Y-118198000D01*
X230822142Y-118162285D01*
X230679285Y-118162285D01*
X230607857Y-118198000D01*
X230250714Y-118662285D02*
X230250714Y-118162285D01*
X230250714Y-117912285D02*
X230286428Y-117948000D01*
X230250714Y-117983714D01*
X230215000Y-117948000D01*
X230250714Y-117912285D01*
X230250714Y-117983714D01*
X229929285Y-118626571D02*
X229857857Y-118662285D01*
X229715000Y-118662285D01*
X229643571Y-118626571D01*
X229607857Y-118555142D01*
X229607857Y-118519428D01*
X229643571Y-118448000D01*
X229715000Y-118412285D01*
X229822142Y-118412285D01*
X229893571Y-118376571D01*
X229929285Y-118305142D01*
X229929285Y-118269428D01*
X229893571Y-118198000D01*
X229822142Y-118162285D01*
X229715000Y-118162285D01*
X229643571Y-118198000D01*
X228965000Y-118662285D02*
X228965000Y-118269428D01*
X229000714Y-118198000D01*
X229072142Y-118162285D01*
X229215000Y-118162285D01*
X229286428Y-118198000D01*
X228965000Y-118626571D02*
X229036428Y-118662285D01*
X229215000Y-118662285D01*
X229286428Y-118626571D01*
X229322142Y-118555142D01*
X229322142Y-118483714D01*
X229286428Y-118412285D01*
X229215000Y-118376571D01*
X229036428Y-118376571D01*
X228965000Y-118340857D01*
X228607857Y-118662285D02*
X228607857Y-117912285D01*
X228607857Y-118198000D02*
X228536428Y-118162285D01*
X228393571Y-118162285D01*
X228322142Y-118198000D01*
X228286428Y-118233714D01*
X228250714Y-118305142D01*
X228250714Y-118519428D01*
X228286428Y-118590857D01*
X228322142Y-118626571D01*
X228393571Y-118662285D01*
X228536428Y-118662285D01*
X228607857Y-118626571D01*
X227822142Y-118662285D02*
X227893571Y-118626571D01*
X227929285Y-118555142D01*
X227929285Y-117912285D01*
X227250714Y-118626571D02*
X227322142Y-118662285D01*
X227465000Y-118662285D01*
X227536428Y-118626571D01*
X227572142Y-118555142D01*
X227572142Y-118269428D01*
X227536428Y-118198000D01*
X227465000Y-118162285D01*
X227322142Y-118162285D01*
X227250714Y-118198000D01*
X227215000Y-118269428D01*
X227215000Y-118340857D01*
X227572142Y-118412285D01*
X230500714Y-121580785D02*
X230500714Y-120830785D01*
X230322142Y-120830785D01*
X230215000Y-120866500D01*
X230143571Y-120937928D01*
X230107857Y-121009357D01*
X230072142Y-121152214D01*
X230072142Y-121259357D01*
X230107857Y-121402214D01*
X230143571Y-121473642D01*
X230215000Y-121545071D01*
X230322142Y-121580785D01*
X230500714Y-121580785D01*
X229322142Y-121580785D02*
X229572142Y-121223642D01*
X229750714Y-121580785D02*
X229750714Y-120830785D01*
X229465000Y-120830785D01*
X229393571Y-120866500D01*
X229357857Y-120902214D01*
X229322142Y-120973642D01*
X229322142Y-121080785D01*
X229357857Y-121152214D01*
X229393571Y-121187928D01*
X229465000Y-121223642D01*
X229750714Y-121223642D01*
X229000714Y-121580785D02*
X229000714Y-120830785D01*
X228750714Y-120830785D02*
X228500714Y-121580785D01*
X228250714Y-120830785D01*
X228000714Y-121187928D02*
X227750714Y-121187928D01*
X227643571Y-121580785D02*
X228000714Y-121580785D01*
X228000714Y-120830785D01*
X227643571Y-120830785D01*
X229465000Y-122855785D02*
X229465000Y-122105785D01*
X229107857Y-122855785D02*
X229107857Y-122105785D01*
X228929285Y-122105785D01*
X228822142Y-122141500D01*
X228750714Y-122212928D01*
X228715000Y-122284357D01*
X228679285Y-122427214D01*
X228679285Y-122534357D01*
X228715000Y-122677214D01*
X228750714Y-122748642D01*
X228822142Y-122820071D01*
X228929285Y-122855785D01*
X229107857Y-122855785D01*
X226550000Y-120355000D02*
X227058000Y-120355000D01*
X149080000Y-120228000D02*
X149080000Y-120736000D01*
X153652000Y-120228000D02*
X153144000Y-120228000D01*
X153144000Y-120228000D02*
X153652000Y-120228000D01*
X153144000Y-123276000D02*
X153144000Y-120228000D01*
X153652000Y-123276000D02*
X153144000Y-123276000D01*
X149080000Y-123276000D02*
X148572000Y-123276000D01*
X149080000Y-120736000D02*
X149080000Y-123276000D01*
X148572000Y-120228000D02*
X149080000Y-120228000D01*
X152522714Y-121453785D02*
X152522714Y-120703785D01*
X152344142Y-120703785D01*
X152237000Y-120739500D01*
X152165571Y-120810928D01*
X152129857Y-120882357D01*
X152094142Y-121025214D01*
X152094142Y-121132357D01*
X152129857Y-121275214D01*
X152165571Y-121346642D01*
X152237000Y-121418071D01*
X152344142Y-121453785D01*
X152522714Y-121453785D01*
X151344142Y-121453785D02*
X151594142Y-121096642D01*
X151772714Y-121453785D02*
X151772714Y-120703785D01*
X151487000Y-120703785D01*
X151415571Y-120739500D01*
X151379857Y-120775214D01*
X151344142Y-120846642D01*
X151344142Y-120953785D01*
X151379857Y-121025214D01*
X151415571Y-121060928D01*
X151487000Y-121096642D01*
X151772714Y-121096642D01*
X151022714Y-121453785D02*
X151022714Y-120703785D01*
X150772714Y-120703785D02*
X150522714Y-121453785D01*
X150272714Y-120703785D01*
X150022714Y-121060928D02*
X149772714Y-121060928D01*
X149665571Y-121453785D02*
X150022714Y-121453785D01*
X150022714Y-120703785D01*
X149665571Y-120703785D01*
X151487000Y-122728785D02*
X151487000Y-121978785D01*
X151129857Y-122728785D02*
X151129857Y-121978785D01*
X150951285Y-121978785D01*
X150844142Y-122014500D01*
X150772714Y-122085928D01*
X150737000Y-122157357D01*
X150701285Y-122300214D01*
X150701285Y-122407357D01*
X150737000Y-122550214D01*
X150772714Y-122621642D01*
X150844142Y-122693071D01*
X150951285Y-122728785D01*
X151129857Y-122728785D01*
X152629857Y-118535285D02*
X152629857Y-117785285D01*
X152629857Y-118499571D02*
X152701285Y-118535285D01*
X152844142Y-118535285D01*
X152915571Y-118499571D01*
X152951285Y-118463857D01*
X152987000Y-118392428D01*
X152987000Y-118178142D01*
X152951285Y-118106714D01*
X152915571Y-118071000D01*
X152844142Y-118035285D01*
X152701285Y-118035285D01*
X152629857Y-118071000D01*
X152272714Y-118535285D02*
X152272714Y-118035285D01*
X152272714Y-117785285D02*
X152308428Y-117821000D01*
X152272714Y-117856714D01*
X152237000Y-117821000D01*
X152272714Y-117785285D01*
X152272714Y-117856714D01*
X151951285Y-118499571D02*
X151879857Y-118535285D01*
X151737000Y-118535285D01*
X151665571Y-118499571D01*
X151629857Y-118428142D01*
X151629857Y-118392428D01*
X151665571Y-118321000D01*
X151737000Y-118285285D01*
X151844142Y-118285285D01*
X151915571Y-118249571D01*
X151951285Y-118178142D01*
X151951285Y-118142428D01*
X151915571Y-118071000D01*
X151844142Y-118035285D01*
X151737000Y-118035285D01*
X151665571Y-118071000D01*
X150987000Y-118535285D02*
X150987000Y-118142428D01*
X151022714Y-118071000D01*
X151094142Y-118035285D01*
X151237000Y-118035285D01*
X151308428Y-118071000D01*
X150987000Y-118499571D02*
X151058428Y-118535285D01*
X151237000Y-118535285D01*
X151308428Y-118499571D01*
X151344142Y-118428142D01*
X151344142Y-118356714D01*
X151308428Y-118285285D01*
X151237000Y-118249571D01*
X151058428Y-118249571D01*
X150987000Y-118213857D01*
X150629857Y-118535285D02*
X150629857Y-117785285D01*
X150629857Y-118071000D02*
X150558428Y-118035285D01*
X150415571Y-118035285D01*
X150344142Y-118071000D01*
X150308428Y-118106714D01*
X150272714Y-118178142D01*
X150272714Y-118392428D01*
X150308428Y-118463857D01*
X150344142Y-118499571D01*
X150415571Y-118535285D01*
X150558428Y-118535285D01*
X150629857Y-118499571D01*
X149844142Y-118535285D02*
X149915571Y-118499571D01*
X149951285Y-118428142D01*
X149951285Y-117785285D01*
X149272714Y-118499571D02*
X149344142Y-118535285D01*
X149487000Y-118535285D01*
X149558428Y-118499571D01*
X149594142Y-118428142D01*
X149594142Y-118142428D01*
X149558428Y-118071000D01*
X149487000Y-118035285D01*
X149344142Y-118035285D01*
X149272714Y-118071000D01*
X149237000Y-118142428D01*
X149237000Y-118213857D01*
X149594142Y-118285285D01*
X207894666Y-62004952D02*
X207894666Y-59504952D01*
X207418476Y-59504952D01*
X207132761Y-59624000D01*
X206942285Y-59862095D01*
X206847047Y-60100190D01*
X206751809Y-60576380D01*
X206751809Y-60933523D01*
X206847047Y-61409714D01*
X206942285Y-61647809D01*
X207132761Y-61885904D01*
X207418476Y-62004952D01*
X207894666Y-62004952D01*
X205132761Y-61885904D02*
X205323238Y-62004952D01*
X205704190Y-62004952D01*
X205894666Y-61885904D01*
X205989904Y-61647809D01*
X205989904Y-60695428D01*
X205894666Y-60457333D01*
X205704190Y-60338285D01*
X205323238Y-60338285D01*
X205132761Y-60457333D01*
X205037523Y-60695428D01*
X205037523Y-60933523D01*
X205989904Y-61171619D01*
X203323238Y-61885904D02*
X203513714Y-62004952D01*
X203894666Y-62004952D01*
X204085142Y-61885904D01*
X204180380Y-61766857D01*
X204275619Y-61528761D01*
X204275619Y-60814476D01*
X204180380Y-60576380D01*
X204085142Y-60457333D01*
X203894666Y-60338285D01*
X203513714Y-60338285D01*
X203323238Y-60457333D01*
X201037523Y-59743047D02*
X200942285Y-59624000D01*
X200751809Y-59504952D01*
X200275619Y-59504952D01*
X200085142Y-59624000D01*
X199989904Y-59743047D01*
X199894666Y-59981142D01*
X199894666Y-60219238D01*
X199989904Y-60576380D01*
X201132761Y-62004952D01*
X199894666Y-62004952D01*
X198656571Y-59504952D02*
X198466095Y-59504952D01*
X198275619Y-59624000D01*
X198180380Y-59743047D01*
X198085142Y-59981142D01*
X197989904Y-60457333D01*
X197989904Y-61052571D01*
X198085142Y-61528761D01*
X198180380Y-61766857D01*
X198275619Y-61885904D01*
X198466095Y-62004952D01*
X198656571Y-62004952D01*
X198847047Y-61885904D01*
X198942285Y-61766857D01*
X199037523Y-61528761D01*
X199132761Y-61052571D01*
X199132761Y-60457333D01*
X199037523Y-59981142D01*
X198942285Y-59743047D01*
X198847047Y-59624000D01*
X198656571Y-59504952D01*
X197228000Y-59743047D02*
X197132761Y-59624000D01*
X196942285Y-59504952D01*
X196466095Y-59504952D01*
X196275619Y-59624000D01*
X196180380Y-59743047D01*
X196085142Y-59981142D01*
X196085142Y-60219238D01*
X196180380Y-60576380D01*
X197323238Y-62004952D01*
X196085142Y-62004952D01*
X194847047Y-59504952D02*
X194656571Y-59504952D01*
X194466095Y-59624000D01*
X194370857Y-59743047D01*
X194275619Y-59981142D01*
X194180380Y-60457333D01*
X194180380Y-61052571D01*
X194275619Y-61528761D01*
X194370857Y-61766857D01*
X194466095Y-61885904D01*
X194656571Y-62004952D01*
X194847047Y-62004952D01*
X195037523Y-61885904D01*
X195132761Y-61766857D01*
X195228000Y-61528761D01*
X195323238Y-61052571D01*
X195323238Y-60457333D01*
X195228000Y-59981142D01*
X195132761Y-59743047D01*
X195037523Y-59624000D01*
X194847047Y-59504952D01*
X190656571Y-62004952D02*
X191323238Y-60814476D01*
X191799428Y-62004952D02*
X191799428Y-59504952D01*
X191037523Y-59504952D01*
X190847047Y-59624000D01*
X190751809Y-59743047D01*
X190656571Y-59981142D01*
X190656571Y-60338285D01*
X190751809Y-60576380D01*
X190847047Y-60695428D01*
X191037523Y-60814476D01*
X191799428Y-60814476D01*
X189513714Y-62004952D02*
X189704190Y-61885904D01*
X189799428Y-61766857D01*
X189894666Y-61528761D01*
X189894666Y-60814476D01*
X189799428Y-60576380D01*
X189704190Y-60457333D01*
X189513714Y-60338285D01*
X189228000Y-60338285D01*
X189037523Y-60457333D01*
X188942285Y-60576380D01*
X188847047Y-60814476D01*
X188847047Y-61528761D01*
X188942285Y-61766857D01*
X189037523Y-61885904D01*
X189228000Y-62004952D01*
X189513714Y-62004952D01*
X187989904Y-62004952D02*
X187989904Y-59504952D01*
X187989904Y-60457333D02*
X187799428Y-60338285D01*
X187418476Y-60338285D01*
X187228000Y-60457333D01*
X187132761Y-60576380D01*
X187037523Y-60814476D01*
X187037523Y-61528761D01*
X187132761Y-61766857D01*
X187228000Y-61885904D01*
X187418476Y-62004952D01*
X187799428Y-62004952D01*
X187989904Y-61885904D01*
X186180380Y-62004952D02*
X186180380Y-60338285D01*
X186180380Y-59504952D02*
X186275619Y-59624000D01*
X186180380Y-59743047D01*
X186085142Y-59624000D01*
X186180380Y-59504952D01*
X186180380Y-59743047D01*
X185228000Y-60338285D02*
X185228000Y-62004952D01*
X185228000Y-60576380D02*
X185132761Y-60457333D01*
X184942285Y-60338285D01*
X184656571Y-60338285D01*
X184466095Y-60457333D01*
X184370857Y-60695428D01*
X184370857Y-62004952D01*
X181323238Y-59504952D02*
X181323238Y-61290666D01*
X181418476Y-61647809D01*
X181608952Y-61885904D01*
X181894666Y-62004952D01*
X182085142Y-62004952D01*
X179513714Y-62004952D02*
X179513714Y-60695428D01*
X179608952Y-60457333D01*
X179799428Y-60338285D01*
X180180380Y-60338285D01*
X180370857Y-60457333D01*
X179513714Y-61885904D02*
X179704190Y-62004952D01*
X180180380Y-62004952D01*
X180370857Y-61885904D01*
X180466095Y-61647809D01*
X180466095Y-61409714D01*
X180370857Y-61171619D01*
X180180380Y-61052571D01*
X179704190Y-61052571D01*
X179513714Y-60933523D01*
X177704190Y-61885904D02*
X177894666Y-62004952D01*
X178275619Y-62004952D01*
X178466095Y-61885904D01*
X178561333Y-61766857D01*
X178656571Y-61528761D01*
X178656571Y-60814476D01*
X178561333Y-60576380D01*
X178466095Y-60457333D01*
X178275619Y-60338285D01*
X177894666Y-60338285D01*
X177704190Y-60457333D01*
X176561333Y-62004952D02*
X176751809Y-61885904D01*
X176847047Y-61766857D01*
X176942285Y-61528761D01*
X176942285Y-60814476D01*
X176847047Y-60576380D01*
X176751809Y-60457333D01*
X176561333Y-60338285D01*
X176275619Y-60338285D01*
X176085142Y-60457333D01*
X175989904Y-60576380D01*
X175894666Y-60814476D01*
X175894666Y-61528761D01*
X175989904Y-61766857D01*
X176085142Y-61885904D01*
X176275619Y-62004952D01*
X176561333Y-62004952D01*
X175037523Y-62004952D02*
X175037523Y-59504952D01*
X175037523Y-60457333D02*
X174847047Y-60338285D01*
X174466095Y-60338285D01*
X174275619Y-60457333D01*
X174180380Y-60576380D01*
X174085142Y-60814476D01*
X174085142Y-61528761D01*
X174180380Y-61766857D01*
X174275619Y-61885904D01*
X174466095Y-62004952D01*
X174847047Y-62004952D01*
X175037523Y-61885904D01*
X173323238Y-61885904D02*
X173132761Y-62004952D01*
X172751809Y-62004952D01*
X172561333Y-61885904D01*
X172466095Y-61647809D01*
X172466095Y-61528761D01*
X172561333Y-61290666D01*
X172751809Y-61171619D01*
X173037523Y-61171619D01*
X173228000Y-61052571D01*
X173323238Y-60814476D01*
X173323238Y-60695428D01*
X173228000Y-60457333D01*
X173037523Y-60338285D01*
X172751809Y-60338285D01*
X172561333Y-60457333D01*
X220180380Y-65904952D02*
X220180380Y-63404952D01*
X219323238Y-65904952D02*
X219323238Y-64595428D01*
X219418476Y-64357333D01*
X219608952Y-64238285D01*
X219894666Y-64238285D01*
X220085142Y-64357333D01*
X220180380Y-64476380D01*
X218656571Y-64238285D02*
X217894666Y-64238285D01*
X218370857Y-63404952D02*
X218370857Y-65547809D01*
X218275619Y-65785904D01*
X218085142Y-65904952D01*
X217894666Y-65904952D01*
X217513714Y-64238285D02*
X216751809Y-64238285D01*
X217228000Y-63404952D02*
X217228000Y-65547809D01*
X217132761Y-65785904D01*
X216942285Y-65904952D01*
X216751809Y-65904952D01*
X216085142Y-64238285D02*
X216085142Y-66738285D01*
X216085142Y-64357333D02*
X215894666Y-64238285D01*
X215513714Y-64238285D01*
X215323238Y-64357333D01*
X215228000Y-64476380D01*
X215132761Y-64714476D01*
X215132761Y-65428761D01*
X215228000Y-65666857D01*
X215323238Y-65785904D01*
X215513714Y-65904952D01*
X215894666Y-65904952D01*
X216085142Y-65785904D01*
X214370857Y-65785904D02*
X214180380Y-65904952D01*
X213799428Y-65904952D01*
X213608952Y-65785904D01*
X213513714Y-65547809D01*
X213513714Y-65428761D01*
X213608952Y-65190666D01*
X213799428Y-65071619D01*
X214085142Y-65071619D01*
X214275619Y-64952571D01*
X214370857Y-64714476D01*
X214370857Y-64595428D01*
X214275619Y-64357333D01*
X214085142Y-64238285D01*
X213799428Y-64238285D01*
X213608952Y-64357333D01*
X212656571Y-65666857D02*
X212561333Y-65785904D01*
X212656571Y-65904952D01*
X212751809Y-65785904D01*
X212656571Y-65666857D01*
X212656571Y-65904952D01*
X212656571Y-64357333D02*
X212561333Y-64476380D01*
X212656571Y-64595428D01*
X212751809Y-64476380D01*
X212656571Y-64357333D01*
X212656571Y-64595428D01*
X210275619Y-63285904D02*
X211989904Y-66500190D01*
X208180380Y-63285904D02*
X209894666Y-66500190D01*
X206656571Y-64238285D02*
X206656571Y-66262095D01*
X206751809Y-66500190D01*
X206847047Y-66619238D01*
X207037523Y-66738285D01*
X207323238Y-66738285D01*
X207513714Y-66619238D01*
X206656571Y-65785904D02*
X206847047Y-65904952D01*
X207228000Y-65904952D01*
X207418476Y-65785904D01*
X207513714Y-65666857D01*
X207608952Y-65428761D01*
X207608952Y-64714476D01*
X207513714Y-64476380D01*
X207418476Y-64357333D01*
X207228000Y-64238285D01*
X206847047Y-64238285D01*
X206656571Y-64357333D01*
X205704190Y-65904952D02*
X205704190Y-64238285D01*
X205704190Y-63404952D02*
X205799428Y-63524000D01*
X205704190Y-63643047D01*
X205608952Y-63524000D01*
X205704190Y-63404952D01*
X205704190Y-63643047D01*
X205037523Y-64238285D02*
X204275619Y-64238285D01*
X204751809Y-63404952D02*
X204751809Y-65547809D01*
X204656571Y-65785904D01*
X204466095Y-65904952D01*
X204275619Y-65904952D01*
X203608952Y-65904952D02*
X203608952Y-63404952D01*
X202751809Y-65904952D02*
X202751809Y-64595428D01*
X202847047Y-64357333D01*
X203037523Y-64238285D01*
X203323238Y-64238285D01*
X203513714Y-64357333D01*
X203608952Y-64476380D01*
X200942285Y-64238285D02*
X200942285Y-65904952D01*
X201799428Y-64238285D02*
X201799428Y-65547809D01*
X201704190Y-65785904D01*
X201513714Y-65904952D01*
X201228000Y-65904952D01*
X201037523Y-65785904D01*
X200942285Y-65666857D01*
X199989904Y-65904952D02*
X199989904Y-63404952D01*
X199989904Y-64357333D02*
X199799428Y-64238285D01*
X199418476Y-64238285D01*
X199228000Y-64357333D01*
X199132761Y-64476380D01*
X199037523Y-64714476D01*
X199037523Y-65428761D01*
X199132761Y-65666857D01*
X199228000Y-65785904D01*
X199418476Y-65904952D01*
X199799428Y-65904952D01*
X199989904Y-65785904D01*
X198180380Y-65666857D02*
X198085142Y-65785904D01*
X198180380Y-65904952D01*
X198275619Y-65785904D01*
X198180380Y-65666857D01*
X198180380Y-65904952D01*
X196370857Y-65785904D02*
X196561333Y-65904952D01*
X196942285Y-65904952D01*
X197132761Y-65785904D01*
X197228000Y-65666857D01*
X197323238Y-65428761D01*
X197323238Y-64714476D01*
X197228000Y-64476380D01*
X197132761Y-64357333D01*
X196942285Y-64238285D01*
X196561333Y-64238285D01*
X196370857Y-64357333D01*
X195228000Y-65904952D02*
X195418476Y-65785904D01*
X195513714Y-65666857D01*
X195608952Y-65428761D01*
X195608952Y-64714476D01*
X195513714Y-64476380D01*
X195418476Y-64357333D01*
X195228000Y-64238285D01*
X194942285Y-64238285D01*
X194751809Y-64357333D01*
X194656571Y-64476380D01*
X194561333Y-64714476D01*
X194561333Y-65428761D01*
X194656571Y-65666857D01*
X194751809Y-65785904D01*
X194942285Y-65904952D01*
X195228000Y-65904952D01*
X193704190Y-65904952D02*
X193704190Y-64238285D01*
X193704190Y-64476380D02*
X193608952Y-64357333D01*
X193418476Y-64238285D01*
X193132761Y-64238285D01*
X192942285Y-64357333D01*
X192847047Y-64595428D01*
X192847047Y-65904952D01*
X192847047Y-64595428D02*
X192751809Y-64357333D01*
X192561333Y-64238285D01*
X192275619Y-64238285D01*
X192085142Y-64357333D01*
X191989904Y-64595428D01*
X191989904Y-65904952D01*
X189608952Y-63285904D02*
X191323238Y-66500190D01*
X188942285Y-65904952D02*
X188942285Y-64238285D01*
X188942285Y-64714476D02*
X188847047Y-64476380D01*
X188751809Y-64357333D01*
X188561333Y-64238285D01*
X188370857Y-64238285D01*
X187704190Y-64238285D02*
X187704190Y-66381142D01*
X187799428Y-66619238D01*
X187989904Y-66738285D01*
X188085142Y-66738285D01*
X187704190Y-63404952D02*
X187799428Y-63524000D01*
X187704190Y-63643047D01*
X187608952Y-63524000D01*
X187704190Y-63404952D01*
X187704190Y-63643047D01*
X185894666Y-65904952D02*
X185894666Y-64595428D01*
X185989904Y-64357333D01*
X186180380Y-64238285D01*
X186561333Y-64238285D01*
X186751809Y-64357333D01*
X185894666Y-65785904D02*
X186085142Y-65904952D01*
X186561333Y-65904952D01*
X186751809Y-65785904D01*
X186847047Y-65547809D01*
X186847047Y-65309714D01*
X186751809Y-65071619D01*
X186561333Y-64952571D01*
X186085142Y-64952571D01*
X185894666Y-64833523D01*
X184085142Y-65785904D02*
X184275619Y-65904952D01*
X184656571Y-65904952D01*
X184847047Y-65785904D01*
X184942285Y-65666857D01*
X185037523Y-65428761D01*
X185037523Y-64714476D01*
X184942285Y-64476380D01*
X184847047Y-64357333D01*
X184656571Y-64238285D01*
X184275619Y-64238285D01*
X184085142Y-64357333D01*
X182942285Y-65904952D02*
X183132761Y-65785904D01*
X183228000Y-65666857D01*
X183323238Y-65428761D01*
X183323238Y-64714476D01*
X183228000Y-64476380D01*
X183132761Y-64357333D01*
X182942285Y-64238285D01*
X182656571Y-64238285D01*
X182466095Y-64357333D01*
X182370857Y-64476380D01*
X182275619Y-64714476D01*
X182275619Y-65428761D01*
X182370857Y-65666857D01*
X182466095Y-65785904D01*
X182656571Y-65904952D01*
X182942285Y-65904952D01*
X181418476Y-65904952D02*
X181418476Y-63404952D01*
X181418476Y-64357333D02*
X181228000Y-64238285D01*
X180847047Y-64238285D01*
X180656571Y-64357333D01*
X180561333Y-64476380D01*
X180466095Y-64714476D01*
X180466095Y-65428761D01*
X180561333Y-65666857D01*
X180656571Y-65785904D01*
X180847047Y-65904952D01*
X181228000Y-65904952D01*
X181418476Y-65785904D01*
X179704190Y-65785904D02*
X179513714Y-65904952D01*
X179132761Y-65904952D01*
X178942285Y-65785904D01*
X178847047Y-65547809D01*
X178847047Y-65428761D01*
X178942285Y-65190666D01*
X179132761Y-65071619D01*
X179418476Y-65071619D01*
X179608952Y-64952571D01*
X179704190Y-64714476D01*
X179704190Y-64595428D01*
X179608952Y-64357333D01*
X179418476Y-64238285D01*
X179132761Y-64238285D01*
X178942285Y-64357333D01*
X176942285Y-65904952D02*
X178085142Y-65904952D01*
X177513714Y-65904952D02*
X177513714Y-63404952D01*
X177704190Y-63762095D01*
X177894666Y-64000190D01*
X178085142Y-64119238D01*
X175989904Y-65904952D02*
X175608952Y-65904952D01*
X175418476Y-65785904D01*
X175323238Y-65666857D01*
X175132761Y-65309714D01*
X175037523Y-64833523D01*
X175037523Y-63881142D01*
X175132761Y-63643047D01*
X175228000Y-63524000D01*
X175418476Y-63404952D01*
X175799428Y-63404952D01*
X175989904Y-63524000D01*
X176085142Y-63643047D01*
X176180380Y-63881142D01*
X176180380Y-64476380D01*
X176085142Y-64714476D01*
X175989904Y-64833523D01*
X175799428Y-64952571D01*
X175418476Y-64952571D01*
X175228000Y-64833523D01*
X175132761Y-64714476D01*
X175037523Y-64476380D01*
X173323238Y-63404952D02*
X173704190Y-63404952D01*
X173894666Y-63524000D01*
X173989904Y-63643047D01*
X174180380Y-64000190D01*
X174275619Y-64476380D01*
X174275619Y-65428761D01*
X174180380Y-65666857D01*
X174085142Y-65785904D01*
X173894666Y-65904952D01*
X173513714Y-65904952D01*
X173323238Y-65785904D01*
X173228000Y-65666857D01*
X173132761Y-65428761D01*
X173132761Y-64833523D01*
X173228000Y-64595428D01*
X173323238Y-64476380D01*
X173513714Y-64357333D01*
X173894666Y-64357333D01*
X174085142Y-64476380D01*
X174180380Y-64595428D01*
X174275619Y-64833523D01*
X172180380Y-65904952D02*
X171799428Y-65904952D01*
X171608952Y-65785904D01*
X171513714Y-65666857D01*
X171323238Y-65309714D01*
X171228000Y-64833523D01*
X171228000Y-63881142D01*
X171323238Y-63643047D01*
X171418476Y-63524000D01*
X171608952Y-63404952D01*
X171989904Y-63404952D01*
X172180380Y-63524000D01*
X172275619Y-63643047D01*
X172370857Y-63881142D01*
X172370857Y-64476380D01*
X172275619Y-64714476D01*
X172180380Y-64833523D01*
X171989904Y-64952571D01*
X171608952Y-64952571D01*
X171418476Y-64833523D01*
X171323238Y-64714476D01*
X171228000Y-64476380D01*
X168942285Y-63285904D02*
X170656571Y-66500190D01*
X168561333Y-63404952D02*
X167418476Y-63404952D01*
X167989904Y-65904952D02*
X167989904Y-63404952D01*
X167037523Y-63404952D02*
X165894666Y-63404952D01*
X166466095Y-65904952D02*
X166466095Y-63404952D01*
X164942285Y-64476380D02*
X165132761Y-64357333D01*
X165228000Y-64238285D01*
X165323238Y-64000190D01*
X165323238Y-63881142D01*
X165228000Y-63643047D01*
X165132761Y-63524000D01*
X164942285Y-63404952D01*
X164561333Y-63404952D01*
X164370857Y-63524000D01*
X164275619Y-63643047D01*
X164180380Y-63881142D01*
X164180380Y-64000190D01*
X164275619Y-64238285D01*
X164370857Y-64357333D01*
X164561333Y-64476380D01*
X164942285Y-64476380D01*
X165132761Y-64595428D01*
X165228000Y-64714476D01*
X165323238Y-64952571D01*
X165323238Y-65428761D01*
X165228000Y-65666857D01*
X165132761Y-65785904D01*
X164942285Y-65904952D01*
X164561333Y-65904952D01*
X164370857Y-65785904D01*
X164275619Y-65666857D01*
X164180380Y-65428761D01*
X164180380Y-64952571D01*
X164275619Y-64714476D01*
X164370857Y-64595428D01*
X164561333Y-64476380D01*
X162656571Y-64595428D02*
X162370857Y-64714476D01*
X162275619Y-64833523D01*
X162180380Y-65071619D01*
X162180380Y-65428761D01*
X162275619Y-65666857D01*
X162370857Y-65785904D01*
X162561333Y-65904952D01*
X163323238Y-65904952D01*
X163323238Y-63404952D01*
X162656571Y-63404952D01*
X162466095Y-63524000D01*
X162370857Y-63643047D01*
X162275619Y-63881142D01*
X162275619Y-64119238D01*
X162370857Y-64357333D01*
X162466095Y-64476380D01*
X162656571Y-64595428D01*
X163323238Y-64595428D01*
X160275619Y-63524000D02*
X160466095Y-63404952D01*
X160751809Y-63404952D01*
X161037523Y-63524000D01*
X161228000Y-63762095D01*
X161323238Y-64000190D01*
X161418476Y-64476380D01*
X161418476Y-64833523D01*
X161323238Y-65309714D01*
X161228000Y-65547809D01*
X161037523Y-65785904D01*
X160751809Y-65904952D01*
X160561333Y-65904952D01*
X160275619Y-65785904D01*
X160180380Y-65666857D01*
X160180380Y-64833523D01*
X160561333Y-64833523D01*
D12*
X202116952Y-57350952D02*
X202116952Y-54850952D01*
X201640761Y-54850952D01*
X201355047Y-54970000D01*
X201164571Y-55208095D01*
X201069333Y-55446190D01*
X200974095Y-55922380D01*
X200974095Y-56279523D01*
X201069333Y-56755714D01*
X201164571Y-56993809D01*
X201355047Y-57231904D01*
X201640761Y-57350952D01*
X202116952Y-57350952D01*
X199736000Y-54850952D02*
X199355047Y-54850952D01*
X199164571Y-54970000D01*
X198974095Y-55208095D01*
X198878857Y-55684285D01*
X198878857Y-56517619D01*
X198974095Y-56993809D01*
X199164571Y-57231904D01*
X199355047Y-57350952D01*
X199736000Y-57350952D01*
X199926476Y-57231904D01*
X200116952Y-56993809D01*
X200212190Y-56517619D01*
X200212190Y-55684285D01*
X200116952Y-55208095D01*
X199926476Y-54970000D01*
X199736000Y-54850952D01*
X198021714Y-54850952D02*
X198021714Y-56874761D01*
X197926476Y-57112857D01*
X197831238Y-57231904D01*
X197640761Y-57350952D01*
X197259809Y-57350952D01*
X197069333Y-57231904D01*
X196974095Y-57112857D01*
X196878857Y-56874761D01*
X196878857Y-54850952D01*
X195259809Y-56041428D02*
X194974095Y-56160476D01*
X194878857Y-56279523D01*
X194783619Y-56517619D01*
X194783619Y-56874761D01*
X194878857Y-57112857D01*
X194974095Y-57231904D01*
X195164571Y-57350952D01*
X195926476Y-57350952D01*
X195926476Y-54850952D01*
X195259809Y-54850952D01*
X195069333Y-54970000D01*
X194974095Y-55089047D01*
X194878857Y-55327142D01*
X194878857Y-55565238D01*
X194974095Y-55803333D01*
X195069333Y-55922380D01*
X195259809Y-56041428D01*
X195926476Y-56041428D01*
X192974095Y-57350952D02*
X193926476Y-57350952D01*
X193926476Y-54850952D01*
X192307428Y-56041428D02*
X191640761Y-56041428D01*
X191355047Y-57350952D02*
X192307428Y-57350952D01*
X192307428Y-54850952D01*
X191355047Y-54850952D01*
X189069333Y-57231904D02*
X188783619Y-57350952D01*
X188307428Y-57350952D01*
X188116952Y-57231904D01*
X188021714Y-57112857D01*
X187926476Y-56874761D01*
X187926476Y-56636666D01*
X188021714Y-56398571D01*
X188116952Y-56279523D01*
X188307428Y-56160476D01*
X188688380Y-56041428D01*
X188878857Y-55922380D01*
X188974095Y-55803333D01*
X189069333Y-55565238D01*
X189069333Y-55327142D01*
X188974095Y-55089047D01*
X188878857Y-54970000D01*
X188688380Y-54850952D01*
X188212190Y-54850952D01*
X187926476Y-54970000D01*
X187069333Y-57350952D02*
X187069333Y-54850952D01*
X186593142Y-54850952D01*
X186307428Y-54970000D01*
X186116952Y-55208095D01*
X186021714Y-55446190D01*
X185926476Y-55922380D01*
X185926476Y-56279523D01*
X186021714Y-56755714D01*
X186116952Y-56993809D01*
X186307428Y-57231904D01*
X186593142Y-57350952D01*
X187069333Y-57350952D01*
X185164571Y-55089047D02*
X185069333Y-54970000D01*
X184878857Y-54850952D01*
X184402666Y-54850952D01*
X184212190Y-54970000D01*
X184116952Y-55089047D01*
X184021714Y-55327142D01*
X184021714Y-55565238D01*
X184116952Y-55922380D01*
X185259809Y-57350952D01*
X184021714Y-57350952D01*
X183164571Y-57350952D02*
X183164571Y-54850952D01*
X182212190Y-56041428D02*
X181545523Y-56041428D01*
X181259809Y-57350952D02*
X182212190Y-57350952D01*
X182212190Y-54850952D01*
X181259809Y-54850952D01*
X179259809Y-57112857D02*
X179355047Y-57231904D01*
X179640761Y-57350952D01*
X179831238Y-57350952D01*
X180116952Y-57231904D01*
X180307428Y-56993809D01*
X180402666Y-56755714D01*
X180497904Y-56279523D01*
X180497904Y-55922380D01*
X180402666Y-55446190D01*
X180307428Y-55208095D01*
X180116952Y-54970000D01*
X179831238Y-54850952D01*
X179640761Y-54850952D01*
X179355047Y-54970000D01*
X179259809Y-55089047D01*
D13*
X174868252Y-71868000D02*
X174345748Y-71868000D01*
X174868252Y-73338000D02*
X174345748Y-73338000D01*
X203062252Y-72122000D02*
X202539748Y-72122000D01*
X203062252Y-73592000D02*
X202539748Y-73592000D01*
X210997948Y-128202000D02*
X211520452Y-128202000D01*
X210997948Y-126732000D02*
X211520452Y-126732000D01*
X213605400Y-82379000D02*
X211605400Y-82379000D01*
X213605400Y-85179000D02*
X213605400Y-82379000D01*
X211605400Y-85179000D02*
X213605400Y-85179000D01*
X211605400Y-82379000D02*
X211605400Y-85179000D01*
X208696800Y-90138400D02*
X208696800Y-88138400D01*
X205896800Y-90138400D02*
X208696800Y-90138400D01*
X205896800Y-88138400D02*
X205896800Y-90138400D01*
X208696800Y-88138400D02*
X205896800Y-88138400D01*
X178313800Y-103598252D02*
X178313800Y-103075748D01*
X176843800Y-103598252D02*
X176843800Y-103075748D01*
X185835400Y-103075748D02*
X185835400Y-103598252D01*
X187305400Y-103075748D02*
X187305400Y-103598252D01*
X165134400Y-103151948D02*
X165134400Y-103674452D01*
X166604400Y-103151948D02*
X166604400Y-103674452D01*
X198557600Y-103623652D02*
X198557600Y-103101148D01*
X197087600Y-103623652D02*
X197087600Y-103101148D01*
X213340400Y-86910452D02*
X213340400Y-86387948D01*
X211870400Y-86910452D02*
X211870400Y-86387948D01*
D10*
X175249857Y-71280142D02*
X175297476Y-71327761D01*
X175440333Y-71375380D01*
X175535571Y-71375380D01*
X175678428Y-71327761D01*
X175773666Y-71232523D01*
X175821285Y-71137285D01*
X175868904Y-70946809D01*
X175868904Y-70803952D01*
X175821285Y-70613476D01*
X175773666Y-70518238D01*
X175678428Y-70423000D01*
X175535571Y-70375380D01*
X175440333Y-70375380D01*
X175297476Y-70423000D01*
X175249857Y-70470619D01*
X174297476Y-71375380D02*
X174868904Y-71375380D01*
X174583190Y-71375380D02*
X174583190Y-70375380D01*
X174678428Y-70518238D01*
X174773666Y-70613476D01*
X174868904Y-70661095D01*
X173440333Y-70375380D02*
X173630809Y-70375380D01*
X173726047Y-70423000D01*
X173773666Y-70470619D01*
X173868904Y-70613476D01*
X173916523Y-70803952D01*
X173916523Y-71184904D01*
X173868904Y-71280142D01*
X173821285Y-71327761D01*
X173726047Y-71375380D01*
X173535571Y-71375380D01*
X173440333Y-71327761D01*
X173392714Y-71280142D01*
X173345095Y-71184904D01*
X173345095Y-70946809D01*
X173392714Y-70851571D01*
X173440333Y-70803952D01*
X173535571Y-70756333D01*
X173726047Y-70756333D01*
X173821285Y-70803952D01*
X173868904Y-70851571D01*
X173916523Y-70946809D01*
X203443857Y-71534142D02*
X203491476Y-71581761D01*
X203634333Y-71629380D01*
X203729571Y-71629380D01*
X203872428Y-71581761D01*
X203967666Y-71486523D01*
X204015285Y-71391285D01*
X204062904Y-71200809D01*
X204062904Y-71057952D01*
X204015285Y-70867476D01*
X203967666Y-70772238D01*
X203872428Y-70677000D01*
X203729571Y-70629380D01*
X203634333Y-70629380D01*
X203491476Y-70677000D01*
X203443857Y-70724619D01*
X202491476Y-71629380D02*
X203062904Y-71629380D01*
X202777190Y-71629380D02*
X202777190Y-70629380D01*
X202872428Y-70772238D01*
X202967666Y-70867476D01*
X203062904Y-70915095D01*
X201586714Y-70629380D02*
X202062904Y-70629380D01*
X202110523Y-71105571D01*
X202062904Y-71057952D01*
X201967666Y-71010333D01*
X201729571Y-71010333D01*
X201634333Y-71057952D01*
X201586714Y-71105571D01*
X201539095Y-71200809D01*
X201539095Y-71438904D01*
X201586714Y-71534142D01*
X201634333Y-71581761D01*
X201729571Y-71629380D01*
X201967666Y-71629380D01*
X202062904Y-71581761D01*
X202110523Y-71534142D01*
X211902057Y-129504142D02*
X211949676Y-129551761D01*
X212092533Y-129599380D01*
X212187771Y-129599380D01*
X212330628Y-129551761D01*
X212425866Y-129456523D01*
X212473485Y-129361285D01*
X212521104Y-129170809D01*
X212521104Y-129027952D01*
X212473485Y-128837476D01*
X212425866Y-128742238D01*
X212330628Y-128647000D01*
X212187771Y-128599380D01*
X212092533Y-128599380D01*
X211949676Y-128647000D01*
X211902057Y-128694619D01*
X210949676Y-129599380D02*
X211521104Y-129599380D01*
X211235390Y-129599380D02*
X211235390Y-128599380D01*
X211330628Y-128742238D01*
X211425866Y-128837476D01*
X211521104Y-128885095D01*
X210092533Y-128932714D02*
X210092533Y-129599380D01*
X210330628Y-128551761D02*
X210568723Y-129266047D01*
X209949676Y-129266047D01*
X213143428Y-126268380D02*
X213714857Y-126268380D01*
X213429142Y-126268380D02*
X213429142Y-125268380D01*
X213524380Y-125411238D01*
X213619619Y-125506476D01*
X213714857Y-125554095D01*
X212524380Y-125268380D02*
X212429142Y-125268380D01*
X212333904Y-125316000D01*
X212286285Y-125363619D01*
X212238666Y-125458857D01*
X212191047Y-125649333D01*
X212191047Y-125887428D01*
X212238666Y-126077904D01*
X212286285Y-126173142D01*
X212333904Y-126220761D01*
X212429142Y-126268380D01*
X212524380Y-126268380D01*
X212619619Y-126220761D01*
X212667238Y-126173142D01*
X212714857Y-126077904D01*
X212762476Y-125887428D01*
X212762476Y-125649333D01*
X212714857Y-125458857D01*
X212667238Y-125363619D01*
X212619619Y-125316000D01*
X212524380Y-125268380D01*
X211762476Y-125601714D02*
X211762476Y-126268380D01*
X211762476Y-125696952D02*
X211714857Y-125649333D01*
X211619619Y-125601714D01*
X211476761Y-125601714D01*
X211381523Y-125649333D01*
X211333904Y-125744571D01*
X211333904Y-126268380D01*
X210524380Y-125744571D02*
X210857714Y-125744571D01*
X210857714Y-126268380D02*
X210857714Y-125268380D01*
X210381523Y-125268380D01*
X210257780Y-82945666D02*
X210972066Y-82945666D01*
X211114923Y-82898047D01*
X211210161Y-82802809D01*
X211257780Y-82659952D01*
X211257780Y-82564714D01*
X211257780Y-83421857D02*
X210257780Y-83421857D01*
X210257780Y-83802809D01*
X210305400Y-83898047D01*
X210353019Y-83945666D01*
X210448257Y-83993285D01*
X210591114Y-83993285D01*
X210686352Y-83945666D01*
X210733971Y-83898047D01*
X210781590Y-83802809D01*
X210781590Y-83421857D01*
X210257780Y-84326619D02*
X210257780Y-84945666D01*
X210638733Y-84612333D01*
X210638733Y-84755190D01*
X210686352Y-84850428D01*
X210733971Y-84898047D01*
X210829209Y-84945666D01*
X211067304Y-84945666D01*
X211162542Y-84898047D01*
X211210161Y-84850428D01*
X211257780Y-84755190D01*
X211257780Y-84469476D01*
X211210161Y-84374238D01*
X211162542Y-84326619D01*
X208130133Y-86790780D02*
X208130133Y-87505066D01*
X208177752Y-87647923D01*
X208272990Y-87743161D01*
X208415847Y-87790780D01*
X208511085Y-87790780D01*
X207653942Y-87790780D02*
X207653942Y-86790780D01*
X207272990Y-86790780D01*
X207177752Y-86838400D01*
X207130133Y-86886019D01*
X207082514Y-86981257D01*
X207082514Y-87124114D01*
X207130133Y-87219352D01*
X207177752Y-87266971D01*
X207272990Y-87314590D01*
X207653942Y-87314590D01*
X206701561Y-86886019D02*
X206653942Y-86838400D01*
X206558704Y-86790780D01*
X206320609Y-86790780D01*
X206225371Y-86838400D01*
X206177752Y-86886019D01*
X206130133Y-86981257D01*
X206130133Y-87076495D01*
X206177752Y-87219352D01*
X206749180Y-87790780D01*
X206130133Y-87790780D01*
X177580342Y-99493742D02*
X177627961Y-99446123D01*
X177675580Y-99303266D01*
X177675580Y-99208028D01*
X177627961Y-99065171D01*
X177532723Y-98969933D01*
X177437485Y-98922314D01*
X177247009Y-98874695D01*
X177104152Y-98874695D01*
X176913676Y-98922314D01*
X176818438Y-98969933D01*
X176723200Y-99065171D01*
X176675580Y-99208028D01*
X176675580Y-99303266D01*
X176723200Y-99446123D01*
X176770819Y-99493742D01*
X177675580Y-100446123D02*
X177675580Y-99874695D01*
X177675580Y-100160409D02*
X176675580Y-100160409D01*
X176818438Y-100065171D01*
X176913676Y-99969933D01*
X176961295Y-99874695D01*
X176675580Y-100779457D02*
X176675580Y-101398504D01*
X177056533Y-101065171D01*
X177056533Y-101208028D01*
X177104152Y-101303266D01*
X177151771Y-101350885D01*
X177247009Y-101398504D01*
X177485104Y-101398504D01*
X177580342Y-101350885D01*
X177627961Y-101303266D01*
X177675580Y-101208028D01*
X177675580Y-100922314D01*
X177627961Y-100827076D01*
X177580342Y-100779457D01*
X176351180Y-101789380D02*
X176351180Y-101217952D01*
X176351180Y-101503666D02*
X175351180Y-101503666D01*
X175494038Y-101408428D01*
X175589276Y-101313190D01*
X175636895Y-101217952D01*
X175351180Y-102408428D02*
X175351180Y-102503666D01*
X175398800Y-102598904D01*
X175446419Y-102646523D01*
X175541657Y-102694142D01*
X175732133Y-102741761D01*
X175970228Y-102741761D01*
X176160704Y-102694142D01*
X176255942Y-102646523D01*
X176303561Y-102598904D01*
X176351180Y-102503666D01*
X176351180Y-102408428D01*
X176303561Y-102313190D01*
X176255942Y-102265571D01*
X176160704Y-102217952D01*
X175970228Y-102170333D01*
X175732133Y-102170333D01*
X175541657Y-102217952D01*
X175446419Y-102265571D01*
X175398800Y-102313190D01*
X175351180Y-102408428D01*
X175351180Y-103360809D02*
X175351180Y-103456047D01*
X175398800Y-103551285D01*
X175446419Y-103598904D01*
X175541657Y-103646523D01*
X175732133Y-103694142D01*
X175970228Y-103694142D01*
X176160704Y-103646523D01*
X176255942Y-103598904D01*
X176303561Y-103551285D01*
X176351180Y-103456047D01*
X176351180Y-103360809D01*
X176303561Y-103265571D01*
X176255942Y-103217952D01*
X176160704Y-103170333D01*
X175970228Y-103122714D01*
X175732133Y-103122714D01*
X175541657Y-103170333D01*
X175446419Y-103217952D01*
X175398800Y-103265571D01*
X175351180Y-103360809D01*
X175684514Y-104122714D02*
X176351180Y-104122714D01*
X175779752Y-104122714D02*
X175732133Y-104170333D01*
X175684514Y-104265571D01*
X175684514Y-104408428D01*
X175732133Y-104503666D01*
X175827371Y-104551285D01*
X176351180Y-104551285D01*
X175827371Y-105360809D02*
X175827371Y-105027476D01*
X176351180Y-105027476D02*
X175351180Y-105027476D01*
X175351180Y-105503666D01*
X187029142Y-99544542D02*
X187076761Y-99496923D01*
X187124380Y-99354066D01*
X187124380Y-99258828D01*
X187076761Y-99115971D01*
X186981523Y-99020733D01*
X186886285Y-98973114D01*
X186695809Y-98925495D01*
X186552952Y-98925495D01*
X186362476Y-98973114D01*
X186267238Y-99020733D01*
X186172000Y-99115971D01*
X186124380Y-99258828D01*
X186124380Y-99354066D01*
X186172000Y-99496923D01*
X186219619Y-99544542D01*
X187124380Y-100496923D02*
X187124380Y-99925495D01*
X187124380Y-100211209D02*
X186124380Y-100211209D01*
X186267238Y-100115971D01*
X186362476Y-100020733D01*
X186410095Y-99925495D01*
X186219619Y-100877876D02*
X186172000Y-100925495D01*
X186124380Y-101020733D01*
X186124380Y-101258828D01*
X186172000Y-101354066D01*
X186219619Y-101401685D01*
X186314857Y-101449304D01*
X186410095Y-101449304D01*
X186552952Y-101401685D01*
X187124380Y-100830257D01*
X187124380Y-101449304D01*
X188702780Y-101789380D02*
X188702780Y-101217952D01*
X188702780Y-101503666D02*
X187702780Y-101503666D01*
X187845638Y-101408428D01*
X187940876Y-101313190D01*
X187988495Y-101217952D01*
X187702780Y-102408428D02*
X187702780Y-102503666D01*
X187750400Y-102598904D01*
X187798019Y-102646523D01*
X187893257Y-102694142D01*
X188083733Y-102741761D01*
X188321828Y-102741761D01*
X188512304Y-102694142D01*
X188607542Y-102646523D01*
X188655161Y-102598904D01*
X188702780Y-102503666D01*
X188702780Y-102408428D01*
X188655161Y-102313190D01*
X188607542Y-102265571D01*
X188512304Y-102217952D01*
X188321828Y-102170333D01*
X188083733Y-102170333D01*
X187893257Y-102217952D01*
X187798019Y-102265571D01*
X187750400Y-102313190D01*
X187702780Y-102408428D01*
X187702780Y-103360809D02*
X187702780Y-103456047D01*
X187750400Y-103551285D01*
X187798019Y-103598904D01*
X187893257Y-103646523D01*
X188083733Y-103694142D01*
X188321828Y-103694142D01*
X188512304Y-103646523D01*
X188607542Y-103598904D01*
X188655161Y-103551285D01*
X188702780Y-103456047D01*
X188702780Y-103360809D01*
X188655161Y-103265571D01*
X188607542Y-103217952D01*
X188512304Y-103170333D01*
X188321828Y-103122714D01*
X188083733Y-103122714D01*
X187893257Y-103170333D01*
X187798019Y-103217952D01*
X187750400Y-103265571D01*
X187702780Y-103360809D01*
X188036114Y-104122714D02*
X188702780Y-104122714D01*
X188131352Y-104122714D02*
X188083733Y-104170333D01*
X188036114Y-104265571D01*
X188036114Y-104408428D01*
X188083733Y-104503666D01*
X188178971Y-104551285D01*
X188702780Y-104551285D01*
X188178971Y-105360809D02*
X188178971Y-105027476D01*
X188702780Y-105027476D02*
X187702780Y-105027476D01*
X187702780Y-105503666D01*
X166201142Y-99798542D02*
X166248761Y-99750923D01*
X166296380Y-99608066D01*
X166296380Y-99512828D01*
X166248761Y-99369971D01*
X166153523Y-99274733D01*
X166058285Y-99227114D01*
X165867809Y-99179495D01*
X165724952Y-99179495D01*
X165534476Y-99227114D01*
X165439238Y-99274733D01*
X165344000Y-99369971D01*
X165296380Y-99512828D01*
X165296380Y-99608066D01*
X165344000Y-99750923D01*
X165391619Y-99798542D01*
X166296380Y-100750923D02*
X166296380Y-100179495D01*
X166296380Y-100465209D02*
X165296380Y-100465209D01*
X165439238Y-100369971D01*
X165534476Y-100274733D01*
X165582095Y-100179495D01*
X166296380Y-101703304D02*
X166296380Y-101131876D01*
X166296380Y-101417590D02*
X165296380Y-101417590D01*
X165439238Y-101322352D01*
X165534476Y-101227114D01*
X165582095Y-101131876D01*
X168001780Y-101865580D02*
X168001780Y-101294152D01*
X168001780Y-101579866D02*
X167001780Y-101579866D01*
X167144638Y-101484628D01*
X167239876Y-101389390D01*
X167287495Y-101294152D01*
X167001780Y-102484628D02*
X167001780Y-102579866D01*
X167049400Y-102675104D01*
X167097019Y-102722723D01*
X167192257Y-102770342D01*
X167382733Y-102817961D01*
X167620828Y-102817961D01*
X167811304Y-102770342D01*
X167906542Y-102722723D01*
X167954161Y-102675104D01*
X168001780Y-102579866D01*
X168001780Y-102484628D01*
X167954161Y-102389390D01*
X167906542Y-102341771D01*
X167811304Y-102294152D01*
X167620828Y-102246533D01*
X167382733Y-102246533D01*
X167192257Y-102294152D01*
X167097019Y-102341771D01*
X167049400Y-102389390D01*
X167001780Y-102484628D01*
X167001780Y-103437009D02*
X167001780Y-103532247D01*
X167049400Y-103627485D01*
X167097019Y-103675104D01*
X167192257Y-103722723D01*
X167382733Y-103770342D01*
X167620828Y-103770342D01*
X167811304Y-103722723D01*
X167906542Y-103675104D01*
X167954161Y-103627485D01*
X168001780Y-103532247D01*
X168001780Y-103437009D01*
X167954161Y-103341771D01*
X167906542Y-103294152D01*
X167811304Y-103246533D01*
X167620828Y-103198914D01*
X167382733Y-103198914D01*
X167192257Y-103246533D01*
X167097019Y-103294152D01*
X167049400Y-103341771D01*
X167001780Y-103437009D01*
X167335114Y-104198914D02*
X168001780Y-104198914D01*
X167430352Y-104198914D02*
X167382733Y-104246533D01*
X167335114Y-104341771D01*
X167335114Y-104484628D01*
X167382733Y-104579866D01*
X167477971Y-104627485D01*
X168001780Y-104627485D01*
X167477971Y-105437009D02*
X167477971Y-105103676D01*
X168001780Y-105103676D02*
X167001780Y-105103676D01*
X167001780Y-105579866D01*
X197900342Y-99595342D02*
X197947961Y-99547723D01*
X197995580Y-99404866D01*
X197995580Y-99309628D01*
X197947961Y-99166771D01*
X197852723Y-99071533D01*
X197757485Y-99023914D01*
X197567009Y-98976295D01*
X197424152Y-98976295D01*
X197233676Y-99023914D01*
X197138438Y-99071533D01*
X197043200Y-99166771D01*
X196995580Y-99309628D01*
X196995580Y-99404866D01*
X197043200Y-99547723D01*
X197090819Y-99595342D01*
X197995580Y-100547723D02*
X197995580Y-99976295D01*
X197995580Y-100262009D02*
X196995580Y-100262009D01*
X197138438Y-100166771D01*
X197233676Y-100071533D01*
X197281295Y-99976295D01*
X196995580Y-101166771D02*
X196995580Y-101262009D01*
X197043200Y-101357247D01*
X197090819Y-101404866D01*
X197186057Y-101452485D01*
X197376533Y-101500104D01*
X197614628Y-101500104D01*
X197805104Y-101452485D01*
X197900342Y-101404866D01*
X197947961Y-101357247D01*
X197995580Y-101262009D01*
X197995580Y-101166771D01*
X197947961Y-101071533D01*
X197900342Y-101023914D01*
X197805104Y-100976295D01*
X197614628Y-100928676D01*
X197376533Y-100928676D01*
X197186057Y-100976295D01*
X197090819Y-101023914D01*
X197043200Y-101071533D01*
X196995580Y-101166771D01*
X196594980Y-101814780D02*
X196594980Y-101243352D01*
X196594980Y-101529066D02*
X195594980Y-101529066D01*
X195737838Y-101433828D01*
X195833076Y-101338590D01*
X195880695Y-101243352D01*
X195594980Y-102433828D02*
X195594980Y-102529066D01*
X195642600Y-102624304D01*
X195690219Y-102671923D01*
X195785457Y-102719542D01*
X195975933Y-102767161D01*
X196214028Y-102767161D01*
X196404504Y-102719542D01*
X196499742Y-102671923D01*
X196547361Y-102624304D01*
X196594980Y-102529066D01*
X196594980Y-102433828D01*
X196547361Y-102338590D01*
X196499742Y-102290971D01*
X196404504Y-102243352D01*
X196214028Y-102195733D01*
X195975933Y-102195733D01*
X195785457Y-102243352D01*
X195690219Y-102290971D01*
X195642600Y-102338590D01*
X195594980Y-102433828D01*
X195594980Y-103386209D02*
X195594980Y-103481447D01*
X195642600Y-103576685D01*
X195690219Y-103624304D01*
X195785457Y-103671923D01*
X195975933Y-103719542D01*
X196214028Y-103719542D01*
X196404504Y-103671923D01*
X196499742Y-103624304D01*
X196547361Y-103576685D01*
X196594980Y-103481447D01*
X196594980Y-103386209D01*
X196547361Y-103290971D01*
X196499742Y-103243352D01*
X196404504Y-103195733D01*
X196214028Y-103148114D01*
X195975933Y-103148114D01*
X195785457Y-103195733D01*
X195690219Y-103243352D01*
X195642600Y-103290971D01*
X195594980Y-103386209D01*
X195928314Y-104148114D02*
X196594980Y-104148114D01*
X196023552Y-104148114D02*
X195975933Y-104195733D01*
X195928314Y-104290971D01*
X195928314Y-104433828D01*
X195975933Y-104529066D01*
X196071171Y-104576685D01*
X196594980Y-104576685D01*
X196071171Y-105386209D02*
X196071171Y-105052876D01*
X196594980Y-105052876D02*
X195594980Y-105052876D01*
X195594980Y-105529066D01*
X214642542Y-86482533D02*
X214690161Y-86434914D01*
X214737780Y-86292057D01*
X214737780Y-86196819D01*
X214690161Y-86053961D01*
X214594923Y-85958723D01*
X214499685Y-85911104D01*
X214309209Y-85863485D01*
X214166352Y-85863485D01*
X213975876Y-85911104D01*
X213880638Y-85958723D01*
X213785400Y-86053961D01*
X213737780Y-86196819D01*
X213737780Y-86292057D01*
X213785400Y-86434914D01*
X213833019Y-86482533D01*
X213833019Y-86863485D02*
X213785400Y-86911104D01*
X213737780Y-87006342D01*
X213737780Y-87244438D01*
X213785400Y-87339676D01*
X213833019Y-87387295D01*
X213928257Y-87434914D01*
X214023495Y-87434914D01*
X214166352Y-87387295D01*
X214737780Y-86815866D01*
X214737780Y-87434914D01*
X211406780Y-87304971D02*
X211406780Y-86733542D01*
X211406780Y-87019257D02*
X210406780Y-87019257D01*
X210549638Y-86924019D01*
X210644876Y-86828780D01*
X210692495Y-86733542D01*
X210406780Y-87924019D02*
X210406780Y-88019257D01*
X210454400Y-88114495D01*
X210502019Y-88162114D01*
X210597257Y-88209733D01*
X210787733Y-88257352D01*
X211025828Y-88257352D01*
X211216304Y-88209733D01*
X211311542Y-88162114D01*
X211359161Y-88114495D01*
X211406780Y-88019257D01*
X211406780Y-87924019D01*
X211359161Y-87828780D01*
X211311542Y-87781161D01*
X211216304Y-87733542D01*
X211025828Y-87685923D01*
X210787733Y-87685923D01*
X210597257Y-87733542D01*
X210502019Y-87781161D01*
X210454400Y-87828780D01*
X210406780Y-87924019D01*
X210740114Y-88685923D02*
X211406780Y-88685923D01*
X210835352Y-88685923D02*
X210787733Y-88733542D01*
X210740114Y-88828780D01*
X210740114Y-88971638D01*
X210787733Y-89066876D01*
X210882971Y-89114495D01*
X211406780Y-89114495D01*
X210882971Y-89924019D02*
X210882971Y-89590685D01*
X211406780Y-89590685D02*
X210406780Y-89590685D01*
X210406780Y-90066876D01*
M02*
